<?xml version="1.0" standalone="yes"?>
<svg xmlns="http://www.w3.org/2000/svg" width="646" height="613">
<path style="fill:#010101; stroke:none;" d="M0 0L0 613L646 613L646 0L0 0z"/>
<path style="fill:#fcfcfc; stroke:none;" d="M300 293C305.548 285.638 311.751 279.016 317.739 272.035C319.545 269.93 323.084 267.032 322.887 263.961C322.723 261.394 320.359 259.319 318.831 257.464C314.98 252.788 311.484 247.801 307.425 243.3C293.781 228.173 279.272 210.746 273.345 191C270.291 180.824 271.78 167.855 282.3 162.598C286.954 160.272 292.891 160.042 298 160C297.992 157.786 298.477 154.464 296.972 152.607C295.51 150.803 292.989 151.355 290.999 151.58C286.014 152.145 281.012 152 276 152L208 152C201.667 152 195.333 151.957 189 152.001C186.618 152.017 183.455 151.717 181.623 153.588C179.165 156.097 181.763 158.305 184.059 159.37C196.02 164.918 204.082 171.831 213.04 181.627C222.342 191.798 229.487 204.032 237.91 214.914C250.081 230.639 262.756 246.025 274.623 261.999C280.01 269.251 284.884 276.861 290.424 284C293.272 287.671 295.555 291.344 300 293M296 442L296 434C291.605 433.985 288.099 433.386 284.004 431.727C256.25 420.483 270.388 383.655 281.745 365C284.159 361.035 286.368 356.941 288.806 353C325.164 294.225 376.072 246.601 419.504 193.3C428.026 182.841 438.468 171.353 450.001 164.233C456.497 160.222 465.702 161.063 466 152L380 152L358 152C355.371 152 350.944 151.219 348.747 153.027C346.835 154.601 347.357 157.295 349.322 158.49C352.097 160.177 355.957 160.336 359 161.405C366.027 163.874 372.346 169.027 375.171 176.004C381.099 190.648 372.11 209.063 365.451 222.001C352.408 247.341 332.824 269.071 315.011 291.039C287.742 324.668 259.919 357.961 230.841 390.039C219.139 402.949 208.64 418.309 193.996 428.251C190.567 430.579 179.418 433.756 181.698 439.687C182.752 442.43 186.659 441.983 189 441.999C195.666 442.045 202.334 442 209 442L296 442M322.014 187.627C309.33 189.605 311.428 208.174 324.96 205.775C335.708 203.87 333.177 185.885 322.014 187.627M320 326C322.664 332.172 328.194 336.771 332.335 342C341.682 353.804 351.329 365.202 360.158 377.424C364.806 383.859 370.325 390.525 373.204 398C379.081 413.26 373.783 429.044 356.83 433.53C354.002 434.279 350.899 434 348 434L348 441L466 441C464.677 438.642 464.141 435.591 462.401 433.528C460.016 430.698 456.125 429.214 453.3 426.845C447.765 422.203 442.91 416.522 438.285 411.001C418.05 386.843 397.893 362.628 378.127 338.09C370.716 328.89 363.56 319.557 356.255 310.289C352.73 305.817 348.86 301.981 346 297C334.743 302.485 328.531 317.231 320 326M318.044 383.028C307.452 388.659 316.045 405.011 326.815 398.682C337.264 392.542 328.506 377.466 318.044 383.028z"/>
</svg>
